<svg width="50" height="50" viewBox="0 0 50 50" fill="none" xmlns="http://www.w3.org/2000/svg">
<path d="M22.9167 27.0833H12.5C11.9097 27.0833 11.4153 26.8833 11.0167 26.4833C10.6181 26.0833 10.4181 25.5889 10.4167 25C10.4153 24.4111 10.6153 23.9167 11.0167 23.5167C11.4181 23.1167 11.9125 22.9167 12.5 22.9167H22.9167V12.5C22.9167 11.9097 23.1167 11.4153 23.5167 11.0167C23.9167 10.6181 24.4111 10.4181 25 10.4167C25.5889 10.4153 26.084 10.6153 26.4854 11.0167C26.8868 11.4181 27.0861 11.9125 27.0833 12.5V22.9167H37.5C38.0903 22.9167 38.5854 23.1167 38.9854 23.5167C39.3854 23.9167 39.5847 24.4111 39.5833 25C39.5819 25.5889 39.3819 26.084 38.9833 26.4854C38.5847 26.8868 38.0903 27.0861 37.5 27.0833H27.0833V37.5C27.0833 38.0903 26.8833 38.5854 26.4833 38.9854C26.0833 39.3854 25.5889 39.5847 25 39.5833C24.4111 39.5819 23.9167 39.3819 23.5167 38.9833C23.1167 38.5847 22.9167 38.0903 22.9167 37.5V27.0833Z" fill="#FCFAF1"/>
</svg>