<svg width="50" height="50" viewBox="0 0 50 50" fill="none" xmlns="http://www.w3.org/2000/svg">
<path d="M4.16659 10.9791L6.83325 8.33331L41.6666 43.1666L39.0207 45.8333L32.6041 39.4166C30.2083 40.2083 27.6666 40.625 24.9999 40.625C14.5833 40.625 5.68742 34.1458 2.08325 25C3.52075 21.3333 5.81242 18.1041 8.72909 15.5416L4.16659 10.9791ZM24.9999 18.75C26.6575 18.75 28.2472 19.4085 29.4193 20.5806C30.5914 21.7527 31.2499 23.3424 31.2499 25C31.251 25.7095 31.1312 26.414 30.8958 27.0833L22.9166 19.1041C23.5859 18.8687 24.2904 18.7489 24.9999 18.75ZM24.9999 9.37498C35.4166 9.37498 44.3124 15.8541 47.9166 25C46.2153 29.3186 43.3261 33.0673 39.5833 35.8125L36.6249 32.8333C39.5061 30.8405 41.8297 28.1439 43.3749 25C41.6909 21.5622 39.0761 18.6659 35.8278 16.6403C32.5795 14.6147 28.828 13.5412 24.9999 13.5416C22.7291 13.5416 20.4999 13.9166 18.4166 14.5833L15.2083 11.3958C18.2083 10.1041 21.5208 9.37498 24.9999 9.37498ZM6.62492 25C8.30897 28.4378 10.9238 31.3341 14.1721 33.3597C17.4204 35.3852 21.1718 36.4588 24.9999 36.4583C26.4374 36.4583 27.8541 36.3125 29.1666 36.0208L24.4166 31.25C22.9669 31.0946 21.6141 30.4476 20.5832 29.4167C19.5523 28.3858 18.9053 27.033 18.7499 25.5833L11.6666 18.4791C9.60408 20.25 7.87492 22.4583 6.62492 25Z" fill="#FF7C00"/>
</svg>