<svg width="50" height="50" viewBox="0 0 50 50" fill="none" xmlns="http://www.w3.org/2000/svg">
<path d="M24.9999 18.75C26.6575 18.75 28.2472 19.4085 29.4193 20.5806C30.5914 21.7527 31.2499 23.3424 31.2499 25C31.2499 26.6576 30.5914 28.2473 29.4193 29.4194C28.2472 30.5915 26.6575 31.25 24.9999 31.25C23.3423 31.25 21.7526 30.5915 20.5805 29.4194C19.4084 28.2473 18.7499 26.6576 18.7499 25C18.7499 23.3424 19.4084 21.7527 20.5805 20.5806C21.7526 19.4085 23.3423 18.75 24.9999 18.75ZM24.9999 9.375C35.4166 9.375 44.3124 15.8542 47.9166 25C44.3124 34.1458 35.4166 40.625 24.9999 40.625C14.5833 40.625 5.68742 34.1458 2.08325 25C5.68742 15.8542 14.5833 9.375 24.9999 9.375ZM6.62492 25C8.30878 28.4381 10.9235 31.3349 14.1717 33.3609C17.42 35.387 21.1716 36.4611 24.9999 36.4611C28.8283 36.4611 32.5798 35.387 35.8281 33.3609C39.0764 31.3349 41.6911 28.4381 43.3749 25C41.6911 21.5619 39.0764 18.6651 35.8281 16.6391C32.5798 14.613 28.8283 13.5389 24.9999 13.5389C21.1716 13.5389 17.42 14.613 14.1717 16.6391C10.9235 18.6651 8.30878 21.5619 6.62492 25Z" fill="#FF7C00"/>
</svg>